<svg width="310.2" height="200.5310760461015" viewBox="0 0 350 226.26007935569157" class="looka-1j8o68f"><defs id="SvgjsDefs1013"></defs><g id="SvgjsG1014" featurekey="rZF8Vg-0" transform="matrix(3.1546068663544165,0,0,3.1546068663544165,104.02074042899028,-0.0019254192299526468)" fill="#111111"><g xmlns="http://www.w3.org/2000/svg" transform="translate(0,-1007.3622)"><path style="color:;font-style:normal;font-variant:normal;font-weight:normal;font-stretch:normal;font-size:medium;line-height:normal;font-family:sans-serif;text-indent:0;text-align:start;text-decoration:none;text-decoration-line:none;text-decoration-style:solid;text-decoration-color:;letter-spacing:normal;word-spacing:normal;text-transform:none;direction:ltr;block-progression:tb;writing-mode:lr-tb;baseline-shift:baseline;text-anchor:start;white-space:normal;clip-rule:nonzero;display:inline;overflow:visible;visibility:visible;opacity:1;isolation:auto;mix-blend-mode:normal;color-interpolation:sRGB;color-interpolation-filters:linearRGB;solid-color:;solid-opacity:1;fill:#111111;fill-opacity:1;fill-rule:evenodd;stroke:none;stroke-width:0.99999994px;stroke-linecap:round;stroke-linejoin:round;stroke-miterlimit:4;stroke-dasharray:none;stroke-dashoffset:0;stroke-opacity:1;color-rendering:auto;image-rendering:auto;shape-rendering:auto;text-rendering:auto;enable-background:accumulate" d="m 37.294922,1016.9023 -27.201172,0.2539 -7.8769531,-0.1269 a 0.50004997,0.50004997 0 0 0 -0.5078125,0.498 c 0,0 -0.052759,14.0007 -0.3808594,20.959 -0.2087844,4.4297 -1.015625,13.3301 -1.015625,13.3301 a 0.50004997,0.50004997 0 0 0 0.54882812,0.543 c 0,0 8.72968328,-0.9057 13.07226588,-1.1426 10.049449,-0.5482 30.257812,-0.6602 30.257812,-0.6602 a 0.50004997,0.50004997 0 0 0 0.494141,-0.5664 c 0,0 -1.767588,-13.0957 -3.210938,-19.5996 -0.994739,-4.4824 -3.699218,-13.1386 -3.699218,-13.1386 a 0.50004997,0.50004997 0 0 0 -0.480469,-0.3497 z m -0.373047,1.0039 c 0.140065,0.4505 2.632105,8.4471 3.576172,12.7012 1.365617,6.1536 2.989239,18.0364 3.115234,18.961 -0.739996,0 -19.811314,0.109 -29.734375,0.6504 -4.2076699,0.2295 -11.7958175,1.0183 -12.5253904,1.0937 0.066025,-0.7311 0.7705682,-8.4917 0.9726563,-12.7793 0.3228578,-6.8471 0.3705133,-19.8504 0.3730469,-20.4961 l 7.3847652,0.1191 a 0.50004997,0.50004997 0 0 0 0.01172,0 l 26.826172,-0.25 z"></path><path style="color:;font-style:normal;font-variant:normal;font-weight:normal;font-stretch:normal;font-size:medium;line-height:normal;font-family:sans-serif;text-indent:0;text-align:start;text-decoration:none;text-decoration-line:none;text-decoration-style:solid;text-decoration-color:;letter-spacing:normal;word-spacing:normal;text-transform:none;direction:ltr;block-progression:tb;writing-mode:lr-tb;baseline-shift:baseline;text-anchor:start;white-space:normal;clip-rule:nonzero;display:inline;overflow:visible;visibility:visible;opacity:1;isolation:auto;mix-blend-mode:normal;color-interpolation:sRGB;color-interpolation-filters:linearRGB;solid-color:;solid-opacity:1;fill:#111111;fill-opacity:1;fill-rule:evenodd;stroke:none;stroke-width:0.99999994px;stroke-linecap:butt;stroke-linejoin:miter;stroke-miterlimit:4;stroke-dasharray:none;stroke-dashoffset:0;stroke-opacity:1;color-rendering:auto;image-rendering:auto;shape-rendering:auto;text-rendering:auto;enable-background:accumulate" d="m 20.716797,1007.3652 c -1.852189,-0.039 -3.872231,0.4007 -5.398438,1.5645 -1.248299,0.952 -2.42418,2.4346 -2.484375,4.1308 -0.113889,3.1923 1.220703,8.9024 1.220704,8.9024 l 0.974609,-0.2227 c 0,0 -1.297267,-5.7868 -1.195313,-8.6445 0.04371,-1.2316 1.010894,-2.5467 2.091797,-3.3711 1.279094,-0.9754 3.096771,-1.3944 4.771485,-1.3594 1.60307,0.034 3.364547,0.4344 4.433593,1.4512 1.177178,1.1196 1.463334,3.1073 1.890625,4.9629 0.439749,1.9098 0.496094,6.1875 0.496094,6.1875 l 1,-0.01 c 0,0 -0.01658,-4.2095 -0.521484,-6.4023 -0.409943,-1.7802 -0.649717,-4.0115 -2.175782,-5.4629 -1.358861,-1.2924 -3.356986,-1.6901 -5.103515,-1.7266 z"></path><path style="color:;font-style:normal;font-variant:normal;font-weight:normal;font-stretch:normal;font-size:medium;line-height:normal;font-family:sans-serif;text-indent:0;text-align:start;text-decoration:none;text-decoration-line:none;text-decoration-style:solid;text-decoration-color:;letter-spacing:normal;word-spacing:normal;text-transform:none;direction:ltr;block-progression:tb;writing-mode:lr-tb;baseline-shift:baseline;text-anchor:start;white-space:normal;clip-rule:nonzero;display:inline;overflow:visible;visibility:visible;opacity:1;isolation:auto;mix-blend-mode:normal;color-interpolation:sRGB;color-interpolation-filters:linearRGB;solid-color:;solid-opacity:1;fill:#111111;fill-opacity:1;fill-rule:evenodd;stroke:none;stroke-width:0.99999994px;stroke-linecap:butt;stroke-linejoin:miter;stroke-miterlimit:4;stroke-dasharray:none;stroke-dashoffset:0;stroke-opacity:1;color-rendering:auto;image-rendering:auto;shape-rendering:auto;text-rendering:auto;enable-background:accumulate" d="m 14.478516,1021.4121 c -0.55657,0.075 -1.003117,0.4028 -1.3125,0.7891 -0.379534,0.4737 -0.793314,1.1536 -0.613282,1.9316 0.169623,0.7333 0.767451,1.2316 1.410157,1.4414 0.75518,0.2464 1.528895,0.018 2.125,-0.3066 0.478608,-0.2608 1.027626,-0.6794 1.171875,-1.3711 0.142522,-0.6834 -0.113425,-1.3693 -0.591797,-1.832 -0.59054,-0.5718 -1.436787,-0.7534 -2.189453,-0.6524 z m 0.132812,0.9902 c 0.469164,-0.063 1.065702,0.095 1.361328,0.3809 0.213066,0.2061 0.362476,0.6518 0.308594,0.9102 -0.04427,0.2122 -0.33956,0.5162 -0.671875,0.6972 -0.429319,0.2338 -0.981064,0.3482 -1.335937,0.2324 -0.324234,-0.1058 -0.688418,-0.459 -0.748047,-0.7168 -0.05927,-0.2561 0.135835,-0.7254 0.419921,-1.08 0.174256,-0.2176 0.455903,-0.3956 0.666016,-0.4239 z"></path><path style="color:;font-style:normal;font-variant:normal;font-weight:normal;font-stretch:normal;font-size:medium;line-height:normal;font-family:sans-serif;text-indent:0;text-align:start;text-decoration:none;text-decoration-line:none;text-decoration-style:solid;text-decoration-color:;letter-spacing:normal;word-spacing:normal;text-transform:none;direction:ltr;block-progression:tb;writing-mode:lr-tb;baseline-shift:baseline;text-anchor:start;white-space:normal;clip-rule:nonzero;display:inline;overflow:visible;visibility:visible;opacity:1;isolation:auto;mix-blend-mode:normal;color-interpolation:sRGB;color-interpolation-filters:linearRGB;solid-color:;solid-opacity:1;fill:#111111;fill-opacity:1;fill-rule:evenodd;stroke:none;stroke-width:0.99999994px;stroke-linecap:butt;stroke-linejoin:miter;stroke-miterlimit:4;stroke-dasharray:none;stroke-dashoffset:0;stroke-opacity:1;color-rendering:auto;image-rendering:auto;shape-rendering:auto;text-rendering:auto;enable-background:accumulate" d="m 28.019531,1020.4629 c -0.603677,0.039 -1.140126,0.3498 -1.513672,0.7793 -0.425169,0.4888 -0.686052,1.1466 -0.638671,1.8242 0.03743,0.5314 0.276538,1.0619 0.74414,1.4024 0.498082,0.3629 1.085665,0.3588 1.554688,0.2929 0.510703,-0.072 1.07875,-0.2658 1.478515,-0.7305 0.3819,-0.4438 0.490747,-1.0071 0.480469,-1.5058 -0.01001,-0.4892 -0.125487,-1.0582 -0.548828,-1.4863 -0.414524,-0.4193 -0.991283,-0.6131 -1.556641,-0.5762 z m 0.06445,0.998 c 0.262323,-0.017 0.612426,0.1105 0.78125,0.2813 0.146433,0.1481 0.25319,0.4835 0.259766,0.8047 0.0065,0.3165 -0.08845,0.6579 -0.238281,0.832 -0.164143,0.1908 -0.514077,0.3439 -0.859375,0.3926 -0.328493,0.046 -0.673036,3e-4 -0.826172,-0.1113 -0.160992,-0.1172 -0.318738,-0.4199 -0.335938,-0.6641 -0.02468,-0.353 0.143622,-0.8069 0.396485,-1.0977 0.202596,-0.2329 0.549831,-0.4199 0.822265,-0.4375 z"></path><path style="color:;font-style:normal;font-variant:normal;font-weight:normal;font-stretch:normal;font-size:medium;line-height:normal;font-family:sans-serif;text-indent:0;text-align:start;text-decoration:none;text-decoration-line:none;text-decoration-style:solid;text-decoration-color:;letter-spacing:normal;word-spacing:normal;text-transform:none;direction:ltr;block-progression:tb;writing-mode:lr-tb;baseline-shift:baseline;text-anchor:start;white-space:normal;clip-rule:nonzero;display:inline;overflow:visible;visibility:visible;opacity:1;isolation:auto;mix-blend-mode:normal;color-interpolation:sRGB;color-interpolation-filters:linearRGB;solid-color:;solid-opacity:1;fill:#111111;fill-opacity:1;fill-rule:evenodd;stroke:none;stroke-width:1.00000024px;stroke-linecap:round;stroke-linejoin:round;stroke-miterlimit:4;stroke-dasharray:none;stroke-dashoffset:0;stroke-opacity:1;color-rendering:auto;image-rendering:auto;shape-rendering:auto;text-rendering:auto;enable-background:accumulate" d="m 27.056641,1029.3848 c -0.926422,-0.1267 -1.909145,0.054 -2.726563,0.5058 -0.746862,0.4124 -1.285692,1.085 -1.695312,1.6758 -0.0109,-0.015 -0.0084,-0.012 -0.01953,-0.027 -0.252387,-0.3343 -0.551515,-0.7172 -0.896484,-0.9786 -0.603221,-0.4572 -1.332017,-0.8255 -2.126953,-0.9375 -1.073476,-0.1512 -2.325404,-0.1321 -3.355469,0.4864 -0.975858,0.5856 -1.831154,1.5986 -2.003906,2.7968 -0.237491,1.646 0.666047,3.1987 1.517578,4.3985 0.875569,1.2335 2.50402,2.5198 3.931641,3.5449 1.42762,1.0251 2.654296,1.7656 2.654297,1.7656 a 0.50005012,0.50005012 0 0 0 0.572265,-0.039 c 0,0 3.281884,-2.6428 4.789063,-4.2422 0.979819,-1.0399 2.379318,-2.0796 2.865234,-3.7051 0.339544,-1.1366 0.401722,-2.5681 -0.345703,-3.6523 -0.728162,-1.0563 -2.052178,-1.4406 -3.160156,-1.5918 z m -0.136719,0.9902 c 0.969415,0.1323 2.021446,0.5154 2.472656,1.1699 0.482271,0.6996 0.489462,1.8645 0.210938,2.7969 l 0.002,0 c -0.361576,1.2095 -1.576797,2.1817 -2.636719,3.3066 -1.303168,1.383 -4.073848,3.6299 -4.417969,3.9102 -0.234821,-0.1439 -1.055229,-0.6383 -2.285156,-1.5215 -1.392769,-1.0001 -2.983715,-2.2998 -3.701172,-3.3105 -0.801263,-1.129 -1.514011,-2.4977 -1.34375,-3.6778 0.113748,-0.7889 0.785318,-1.6344 1.53125,-2.082 0.717587,-0.4309 1.755628,-0.4867 2.701172,-0.3535 0.572872,0.081 1.164386,0.3668 1.662109,0.7441 0.163054,0.1236 0.472474,0.4778 0.703125,0.7832 0.225959,0.2993 0.38586,0.5425 0.392579,0.5528 a 0.50005012,0.50005012 0 0 0 0.0039,0.01 c 2.1e-5,0 0.0039,0 0.0039,0 a 0.50005012,0.50005012 0 0 0 0.8125,0.033 0.50005012,0.50005012 0 0 0 0.03516,-0.053 c 0.29381,-0.4997 1.085151,-1.5549 1.746094,-1.9199 a 0.50005012,0.50005012 0 0 0 0.002,0 c 0.613473,-0.3391 1.407852,-0.486 2.105469,-0.3906 z"></path></g></g><g id="SvgjsG1015" featurekey="6VBqdG-0" transform="matrix(3.0308277608738523,0,0,3.0308277608738523,-3.6369934575697522,144.8455182263442)" fill="#111111"><path d="M5.9 6 c3.14 0 5.06 1.92 5.06 4.62 s-1.92 4.5 -5.06 4.5 l-2.5 0 l0 4.88 l-2.2 0 l0 -14 l4.7 0 z M5.8 13.2 c1.78 0 2.96 -0.84 2.96 -2.58 s-1.18 -2.58 -2.96 -2.58 l-2.4 0 l0 5.16 l2.4 0 z M17.740000000000002 9.42 c2.36 0 5.56 1.8 5.06 6.16 l-8.28 0 c0.32 1.86 1.8 2.78 3.48 2.78 c1.38 0 2.12 -0.36 2.88 -0.96 l1.22 1.16 c-0.92 1.04 -2.24 1.64 -4.16 1.64 c-2.64 0 -5.58 -1.8 -5.58 -5.38 c0 -3.6 3.02 -5.4 5.38 -5.4 z M17.740000000000002 11.28 c-1.34 0 -2.84 0.9 -3.2 2.72 l6.36 0 c-0.24 -1.82 -1.82 -2.72 -3.16 -2.72 z M30.560000000000002 9.44 c0.22 0 0.42 0 0.62 0.04 l0 2.06 c-0.2 -0.04 -0.4 -0.04 -0.56 -0.04 c-1.96 0 -3.56 1.4 -3.8 3.6 l0 4.9 l-2.16 0 l0 -10.4 l2.16 0 l0 2.66 c0.44 -1.54 1.78 -2.82 3.74 -2.82 z M36.96 7.460000000000001 c-1.02 0 -1.38 0.64 -1.38 1.54 l0 0.6 l2.68 0 l0 1.8 l-2.68 0 l0 8.6 l-2.16 0 l0 -8.6 l-1.24 0 l0 -1.8 l1.24 0 l0 -0.6 c0 -2.9 2.02 -3.34 3.32 -3.34 c0.92 0 1.78 0.24 2.42 0.64 l-0.76 1.5 c-0.5 -0.22 -0.88 -0.34 -1.44 -0.34 z M45.74 9.42 c2.36 0 5.56 1.8 5.06 6.16 l-8.28 0 c0.32 1.86 1.8 2.78 3.48 2.78 c1.38 0 2.12 -0.36 2.88 -0.96 l1.22 1.16 c-0.92 1.04 -2.24 1.64 -4.16 1.64 c-2.64 0 -5.58 -1.8 -5.58 -5.38 c0 -3.6 3.02 -5.4 5.38 -5.4 z M45.74 11.28 c-1.34 0 -2.84 0.9 -3.2 2.72 l6.36 0 c-0.24 -1.82 -1.82 -2.72 -3.16 -2.72 z M57.64 9.42 c1.88 0 3.5 0.84 4.44 2.52 l-1.68 0.76 c-0.62 -0.84 -1.46 -1.36 -2.74 -1.36 c-1.54 0 -3.3 1.16 -3.3 3.48 c0 2.3 1.76 3.44 3.3 3.44 c1.28 0 2.12 -0.5 2.74 -1.34 l1.7 0.76 c-0.96 1.68 -2.56 2.5 -4.46 2.5 c-2.36 0 -5.38 -1.74 -5.38 -5.36 c0 -3.6 3.02 -5.4 5.38 -5.4 z M69.10000000000001 11.4 l-2.2 0 l0 5.82 c0 0.56 0.2 1 0.84 1 c0.54 0 0.92 -0.1 1.36 -0.28 l0 1.82 c-0.44 0.22 -1.02 0.36 -1.92 0.36 c-1.3 0 -2.44 -0.52 -2.44 -2.82 l0 -5.9 l-1.44 0 l0 -1.8 l1.44 0 l0 -2.44 l2.16 0 l0 2.44 l2.2 0 l0 1.8 z M88.64 18.5 c-1.26 1.1 -2.9 1.7 -4.72 1.7 c-3.76 0 -7.22 -2.96 -7.22 -7.2 s3.46 -7.2 7.22 -7.2 c1.8 0 3.42 0.6 4.66 1.66 l-1.34 1.52 c-0.88 -0.68 -2.02 -1.1 -3.18 -1.1 c-2.72 0 -5.08 2.12 -5.08 5.12 s2.36 5.12 5.08 5.12 c1.18 0 2.36 -0.44 3.24 -1.16 z M95.22 9.42 c1.88 0 3.12 1.12 3.38 1.8 l0 -1.62 l2.16 0 l0 10.4 l-2.16 0 l0 -1.72 c-0.26 0.84 -1.5 1.92 -3.38 1.92 c-2.36 0 -5.18 -1.76 -5.18 -5.4 c0 -3.58 2.82 -5.38 5.18 -5.38 z M95.5 11.34 c-1.62 0 -3.36 1.16 -3.36 3.46 c0 2.32 1.74 3.48 3.36 3.48 s3.2 -1.14 3.2 -3.48 c0 -2.32 -1.58 -3.46 -3.2 -3.46 z M108.86 9.44 c0.22 0 0.42 0 0.62 0.04 l0 2.06 c-0.2 -0.04 -0.4 -0.04 -0.56 -0.04 c-1.96 0 -3.56 1.4 -3.8 3.6 l0 4.9 l-2.16 0 l0 -10.4 l2.16 0 l0 2.66 c0.44 -1.54 1.78 -2.82 3.74 -2.82 z M116.68 11.4 l-2.2 0 l0 5.82 c0 0.56 0.2 1 0.84 1 c0.54 0 0.92 -0.1 1.36 -0.28 l0 1.82 c-0.44 0.22 -1.02 0.36 -1.92 0.36 c-1.3 0 -2.44 -0.52 -2.44 -2.82 l0 -5.9 l-1.44 0 l0 -1.8 l1.44 0 l0 -2.44 l2.16 0 l0 2.44 l2.2 0 l0 1.8 z"></path></g><g id="SvgjsG1016" featurekey="rMoqOW-0" transform="matrix(0.7056450744573441,0,0,0.7056450744573441,34.50604959190435,211.93548488257193)" fill="#111111"><path d="M5.72 5.76 c2.38 0 3.96 1.52 4.66 2.9 l-1.94 1.14 c-0.74 -1.1 -1.54 -1.72 -2.72 -1.72 c-1.12 0 -1.92 0.66 -1.92 1.56 c0 0.86 0.52 1.36 1.72 1.8 l0.96 0.36 c2.98 1.06 4.28 2.36 4.28 4.36 c0 2.72 -2.58 4.14 -4.96 4.14 c-2.5 0 -4.46 -1.48 -5.1 -3.44 l2.02 -1.06 c0.5 1.12 1.44 2.12 3.08 2.12 c1.24 0 2.24 -0.6 2.24 -1.72 c0 -1.14 -0.72 -1.64 -2.28 -2.22 l-0.9 -0.32 c-2.08 -0.76 -3.66 -1.8 -3.66 -4.12 c0 -2.2 2.02 -3.78 4.52 -3.78 z M35.120000000000005 6 l2.62 0 l0 14 l-2.62 0 l0 -5.76 l-6 0 l0 5.76 l-2.62 0 l0 -14 l2.62 0 l0 5.82 l6 0 l0 -5.82 z M60.92 5.800000000000001 c3.84 0 7.24 2.96 7.24 7.2 s-3.4 7.2 -7.24 7.2 s-7.24 -2.96 -7.24 -7.2 s3.4 -7.2 7.24 -7.2 z M60.92 17.740000000000002 c2.44 0 4.5 -1.98 4.5 -4.74 s-2.06 -4.74 -4.5 -4.74 c-2.46 0 -4.52 1.98 -4.52 4.74 s2.06 4.74 4.52 4.74 z M88.92 6 c3.14 0 5.12 1.92 5.12 4.7 s-1.98 4.54 -5.12 4.54 l-2.2 0 l0 4.76 l-2.62 0 l0 -14 l4.82 0 z M88.78 12.98 c1.58 0 2.64 -0.68 2.64 -2.28 c0 -1.58 -1.06 -2.28 -2.64 -2.28 l-2.06 0 l0 4.56 l2.06 0 z M148.72000000000003 6 l-4.58 14 l-1.86 0 l-3.42 -9.34 l-3.4 9.34 l-1.86 0 l-4.58 -14 l2.76 0 l2.86 8.84 l3.22 -8.84 l2.02 0 l3.22 8.84 l2.86 -8.84 l2.76 0 z M166.98000000000002 6 l0 14 l-2.62 0 l0 -14 l2.62 0 z M192.62000000000003 6 l0 2.42 l-3.6 0 l0 11.58 l-2.62 0 l0 -11.58 l-3.58 0 l0 -2.42 l9.8 0 z M217.08000000000004 6 l2.62 0 l0 14 l-2.62 0 l0 -5.76 l-6 0 l0 5.76 l-2.62 0 l0 -14 l2.62 0 l0 5.82 l6 0 l0 -5.82 z M260.30000000000007 5.76 c2.38 0 3.96 1.52 4.66 2.9 l-1.94 1.14 c-0.74 -1.1 -1.54 -1.72 -2.72 -1.72 c-1.12 0 -1.92 0.66 -1.92 1.56 c0 0.86 0.52 1.36 1.72 1.8 l0.96 0.36 c2.98 1.06 4.28 2.36 4.28 4.36 c0 2.72 -2.58 4.14 -4.96 4.14 c-2.5 0 -4.46 -1.48 -5.1 -3.44 l2.02 -1.06 c0.5 1.12 1.44 2.12 3.08 2.12 c1.24 0 2.24 -0.6 2.24 -1.72 c0 -1.14 -0.72 -1.64 -2.28 -2.22 l-0.9 -0.32 c-2.08 -0.76 -3.66 -1.8 -3.66 -4.12 c0 -2.2 2.02 -3.78 4.52 -3.78 z M292.30000000000007 20 l-1.16 -2.7 l-6.92 0 l-1.16 2.7 l-2.78 0 l6.24 -14 l2.34 0 l6.22 14 l-2.78 0 z M285.14000000000004 15.16 l5.08 0 l-2.54 -5.92 z M319.24000000000007 8.38 l-6.02 0 l0 3.46 l4.96 0 l0 2.24 l-4.96 0 l0 5.92 l-2.7 0 l0 -14 l8.72 0 l0 2.38 z M337.6 17.58 l6.1 0 l0 2.42 l-6.5 0 l-2.22 0 l0 -14 l2.62 0 l5.92 0 l0 2.42 l-5.92 0 l0 3.36 l4.5 0 l0 2.36 l-4.5 0 l0 3.44 z M369.0400000000001 6 l0 2.42 l-3.6 0 l0 11.58 l-2.62 0 l0 -11.58 l-3.58 0 l0 -2.42 l9.8 0 z M397.50000000000006 6 l-5.3 7.92 l0 6.08 l-2.62 0 l0 -6.08 l-5.3 -7.92 l2.96 0 l3.64 5.54 l3.64 -5.54 l2.98 0 z"></path></g></svg>
